<?xml version="1.0" encoding="UTF-8"?>
<svg version="1.1" xmlns="http://www.w3.org/2000/svg" width="500" height="500">
<path d="M0 0 C2.8613221 2.49633456 5.62025665 5.03384425 8 8 C8 8.66 8 9.32 8 10 C8.66 10 9.32 10 10 10 C11.29205453 12.21889649 12.55745143 14.44775483 13.8125 16.6875 C14.16892578 17.29400391 14.52535156 17.90050781 14.89257812 18.52539062 C21.15337778 29.84078083 21.50066164 42.32522766 21.6875 54.9375 C21.71968668 56.49033368 21.75273569 58.04314972 21.78662109 59.59594727 C21.87877507 64.06375094 21.94310606 68.5316273 22 73 C22.02489502 74.76537109 22.02489502 74.76537109 22.05029297 76.56640625 C22.17688399 86.75620204 22.19737836 96.86504747 21 107 C21.4640625 106.731875 21.928125 106.46375 22.40625 106.1875 C24.92151777 104.76093022 27.45735348 103.37726687 30 102 C30.56847656 101.68933594 31.13695312 101.37867188 31.72265625 101.05859375 C53.23235995 89.41321277 75.15680225 85.77892 99.5 85.6875 C100.73967529 85.68194092 101.97935059 85.67638184 103.2565918 85.6706543 C119.91876659 85.80106265 135.40091535 88.74051357 149 99 C149 99.66 149 100.32 149 101 C149.66 101 150.32 101 151 101 C151 101.66 151 102.32 151 103 C151.66 103 152.32 103 153 103 C153 103.66 153 104.32 153 105 C153.66 105 154.32 105 155 105 C155 105.66 155 106.32 155 107 C155.66 107 156.32 107 157 107 C157.66 108.65 158.32 110.3 159 112 C159.66 112 160.32 112 161 112 C169.87072571 126.39675157 173.37281163 143.2538723 170 160 C166.839884 171.9017356 161.20993666 181.73467223 152 190 C151.54882812 190.45503906 151.09765625 190.91007813 150.6328125 191.37890625 C138.52334278 202.91603785 123.71413851 205.32266147 107.65576172 205.22705078 C105.70773399 205.22748886 105.70773399 205.22748886 103.72035217 205.22793579 C100.19000849 205.22850522 96.65980312 205.21681794 93.12949133 205.20278788 C89.42863018 205.19021161 85.72776521 205.18910462 82.02688599 205.18673706 C75.03253518 205.18054243 68.03824755 205.16415916 61.04392445 205.14403808 C53.07529201 205.12161599 45.10665642 205.11066984 37.13800025 205.10064721 C20.75862997 205.07979095 4.37932307 205.04465457 -12 205 C-7.9471246 209.11631093 -7.9471246 209.11631093 -3.37109375 212.60546875 C-2.72849609 213.03150391 -2.08589844 213.45753906 -1.42382812 213.89648438 C-0.76833984 214.32251953 -0.11285156 214.74855469 0.5625 215.1875 C1.22185547 215.62513672 1.88121094 216.06277344 2.56054688 216.51367188 C5.62911841 218.5336863 8.64787874 220.47320686 12 222 C12 222.66 12 223.32 12 224 C12.804375 224.1546875 12.804375 224.1546875 13.625 224.3125 C16.62502044 225.18092697 19.2379535 226.55620296 22 228 C22 228.66 22 229.32 22 230 C22.58773193 230.12366943 23.17546387 230.24733887 23.78100586 230.37475586 C25.99977716 230.99993721 27.55839769 231.78562993 29.50390625 233.00390625 C30.15657471 233.41068604 30.80924316 233.81746582 31.48168945 234.23657227 C32.16835693 234.67412842 32.85502441 235.11168457 33.5625 235.5625 C34.27559326 236.01359131 34.98868652 236.46468262 35.72338867 236.92944336 C68.32210915 257.73283994 68.32210915 257.73283994 77 271 C77 271.66 77 272.32 77 273 C77.66 273 78.32 273 79 273 C80.46683251 275.6831566 81.92353026 278.37104767 83.375 281.0625 C83.7875 281.81466797 84.2 282.56683594 84.625 283.34179688 C90.41621755 294.13027473 91.40600705 304.9305178 91 317 C90.97164063 317.86367188 90.94328125 318.72734375 90.9140625 319.6171875 C89.80896548 337.77235279 80.48939578 356.0792383 69 370 C68.34 370 67.68 370 67 370 C66.76796875 370.55816406 66.5359375 371.11632812 66.296875 371.69140625 C62.48825883 378.4712019 55.20226047 384.34830464 49 389 C48.34 389 47.68 389 47 389 C47 389.66 47 390.32 47 391 C45.49389648 392.35351563 45.49389648 392.35351563 43.37109375 393.90625 C42.59000244 394.48109131 41.80891113 395.05593262 41.00415039 395.64819336 C39.73365845 396.56483765 39.73365845 396.56483765 38.4375 397.5 C37.5808374 398.12205322 36.7241748 398.74410645 35.84155273 399.38500977 C33.23530607 401.26755434 30.61959068 403.13607971 28 405 C26.85772949 405.81766846 26.85772949 405.81766846 25.69238281 406.65185547 C23.66027717 408.09736916 21.61554144 409.52193143 19.5625 410.9375 C18.955271 411.36804688 18.34804199 411.79859375 17.72241211 412.2421875 C13.63734431 415 13.63734431 415 10.79296875 415 C8.46383192 413.70096072 7.29982358 412.22677383 5.75 410.0625 C4.96882813 408.99708984 4.96882813 408.99708984 4.171875 407.91015625 C3 406 3 406 3 404 C2.34 404 1.68 404 1 404 C-0.48445399 402.07111681 -1.84548344 400.14995451 -3.1875 398.125 C-3.99954626 396.9215687 -4.81205076 395.71844649 -5.625 394.515625 C-6.22828125 393.6174707 -6.22828125 393.6174707 -6.84375 392.70117188 C-8.41277817 390.39268618 -10.0528104 388.13729365 -11.6875 385.875 C-14.55052567 381.78028366 -17.01072634 377.58054431 -19.3359375 373.16015625 C-20.58259919 370.79266962 -21.85721744 368.45490784 -23.1640625 366.12109375 C-30.08914147 353.62441424 -34.93748165 341.005445 -38.3125 327.125 C-38.47210205 326.47208984 -38.6317041 325.81917969 -38.79614258 325.14648438 C-41.20585106 314.51236502 -41.20371118 303.66579987 -41.1875 292.8125 C-41.18709213 291.78394897 -41.18709213 291.78394897 -41.18667603 290.73461914 C-41.16831859 280.66711011 -40.79913038 270.92981577 -39 261 C-38.84015625 259.90042969 -38.6803125 258.80085938 -38.515625 257.66796875 C-35.93653728 242.14116365 -30.49331963 226.31860226 -24 212 C-24.78375 212.825 -25.5675 213.65 -26.375 214.5 C-29 217 -29 217 -31 217 C-31 217.66 -31 218.32 -31 219 C-31.66 219 -32.32 219 -33 219 C-33 219.66 -33 220.32 -33 221 C-34.57421875 222.55078125 -34.57421875 222.55078125 -36.6875 224.3125 C-39.19802294 226.43644684 -41.60823421 228.55501344 -43.875 230.9375 C-46 233 -46 233 -48 233 C-48 233.66 -48 234.32 -48 235 C-48.66 235 -49.32 235 -50 235 C-50 235.66 -50 236.32 -50 237 C-50.66 237 -51.32 237 -52 237 C-52 237.66 -52 238.32 -52 239 C-52.66 239 -53.32 239 -54 239 C-54 239.66 -54 240.32 -54 241 C-54.66 241 -55.32 241 -56 241 C-56 241.66 -56 242.32 -56 243 C-56.66 243 -57.32 243 -58 243 C-58 243.66 -58 244.32 -58 245 C-58.66 245 -59.32 245 -60 245 C-60 245.66 -60 246.32 -60 247 C-60.66 247 -61.32 247 -62 247 C-62 247.66 -62 248.32 -62 249 C-62.66 249 -63.32 249 -64 249 C-64 249.66 -64 250.32 -64 251 C-64.66 251 -65.32 251 -66 251 C-66 251.66 -66 252.32 -66 253 C-66.66 253 -67.32 253 -68 253 C-68 253.66 -68 254.32 -68 255 C-68.66 255 -69.32 255 -70 255 C-70 255.66 -70 256.32 -70 257 C-70.66 257 -71.32 257 -72 257 C-72 257.66 -72 258.32 -72 259 C-77.47619048 264 -77.47619048 264 -80 264 C-80 264.66 -80 265.32 -80 266 C-80.66 266 -81.32 266 -82 266 C-82 266.66 -82 267.32 -82 268 C-84.1279181 269.78855185 -86.25148217 271.43661452 -88.5 273.0625 C-89.17345459 273.54984619 -89.84690918 274.03719238 -90.54077148 274.53930664 C-110.09418313 288.42722522 -128.86439142 295.16857541 -153.18994141 291.68652344 C-165.27460157 289.24776105 -175.66560093 281.83951416 -184 273 C-184.495 271.515 -184.495 271.515 -185 270 C-185.66 270 -186.32 270 -187 270 C-194.00671225 258.44974276 -198.3516315 248.71704611 -199 235 C-199.04125 234.26136719 -199.0825 233.52273438 -199.125 232.76171875 C-199.60249451 216.4373752 -194.33314778 201.29963817 -187 187 C-186.34 187 -185.68 187 -185 187 C-184.855625 186.38125 -184.71125 185.7625 -184.5625 185.125 C-184 183 -184 183 -183 181 C-182.34 181 -181.68 181 -181 181 C-180.74992187 180.42894531 -180.49984375 179.85789063 -180.2421875 179.26953125 C-174.26006323 168.33992684 -161.37959982 161.605741 -149.9765625 157.77734375 C-117.29439685 149.2422375 -79.58813929 158.05501812 -50.92578125 174.6328125 C-49.61369872 175.41606002 -48.30489925 176.20484267 -47 177 C-46.38946777 177.37092773 -45.77893555 177.74185547 -45.14990234 178.12402344 C-43.72742427 179.02352551 -42.35685397 180.0042615 -41 181 C-41 181.66 -41 182.32 -41 183 C-40.236875 183.28875 -39.47375 183.5775 -38.6875 183.875 C-36 185 -36 185 -33 187 C-33 187.66 -33 188.32 -33 189 C-32.41734375 189.26554688 -31.8346875 189.53109375 -31.234375 189.8046875 C-28.93825772 191.03302996 -27.19643982 192.40314939 -25.25 194.125 C-24.63640625 194.66382813 -24.0228125 195.20265625 -23.390625 195.7578125 C-22.70226562 196.37269531 -22.70226562 196.37269531 -22 197 C-23.39820482 191.27869705 -25.6317304 186.47529737 -28.4375 181.3125 C-28.83259766 180.56677734 -29.22769531 179.82105469 -29.63476562 179.05273438 C-31.55179127 175.47705093 -33.54901268 172.23908613 -36 169 C-36 168.34 -36 167.68 -36 167 C-36.66 167 -37.32 167 -38 167 C-39.41015625 165.19921875 -39.41015625 165.19921875 -41.0625 162.6875 C-44.42014259 157.74235275 -48.06642031 153.13682673 -51.88671875 148.54296875 C-52.93279297 147.28419922 -52.93279297 147.28419922 -54 146 C-54.74894531 145.10925781 -55.49789062 144.21851563 -56.26953125 143.30078125 C-58 141 -58 141 -58 139 C-58.66 139 -59.32 139 -60 139 C-61.59903023 137.20416605 -63.0548061 135.41522733 -64.5 133.5 C-65.16104736 132.62855347 -65.16104736 132.62855347 -65.83544922 131.73950195 C-76.54848285 117.36988975 -85.58585899 101.74706183 -91.375 84.75 C-91.61379883 84.05406738 -91.85259766 83.35813477 -92.09863281 82.64111328 C-95.37849601 72.46214565 -96.37023227 62.21410344 -96.3125 51.5625 C-96.30686035 50.46719971 -96.3012207 49.37189941 -96.29541016 48.2434082 C-96.07110558 33.31382871 -92.32981369 19.99547475 -83 8 C-82.34 8 -81.68 8 -81 8 C-80.7525 7.38125 -80.505 6.7625 -80.25 6.125 C-78.79371361 3.64931313 -77.62187494 3.04874998 -75 2 C-75 1.34 -75 0.68 -75 0 C-52.47124151 -17.69182969 -22.6150401 -16.56036221 0 0 Z " fill="#F1B725" transform="translate(265,46)"/>
<path d="M0 0 C2.8613221 2.49633456 5.62025665 5.03384425 8 8 C8 8.66 8 9.32 8 10 C8.66 10 9.32 10 10 10 C11.29205453 12.21889649 12.55745143 14.44775483 13.8125 16.6875 C14.16892578 17.29400391 14.52535156 17.90050781 14.89257812 18.52539062 C21.15337778 29.84078083 21.50066164 42.32522766 21.6875 54.9375 C21.71968668 56.49033368 21.75273569 58.04314972 21.78662109 59.59594727 C21.87877507 64.06375094 21.94310606 68.5316273 22 73 C22.01659668 74.17691406 22.03319336 75.35382813 22.05029297 76.56640625 C22.17688399 86.75620204 22.19737836 96.86504747 21 107 C21.69609375 106.5978125 21.69609375 106.5978125 22.40625 106.1875 C24.92151777 104.76093022 27.45735348 103.37726687 30 102 C30.56847656 101.68933594 31.13695312 101.37867188 31.72265625 101.05859375 C53.23235995 89.41321277 75.15680225 85.77892 99.5 85.6875 C100.73967529 85.68194092 101.97935059 85.67638184 103.2565918 85.6706543 C119.91876659 85.80106265 135.40091535 88.74051357 149 99 C149 99.66 149 100.32 149 101 C149.66 101 150.32 101 151 101 C151 101.66 151 102.32 151 103 C151.66 103 152.32 103 153 103 C153 103.66 153 104.32 153 105 C153.66 105 154.32 105 155 105 C155 105.66 155 106.32 155 107 C155.66 107 156.32 107 157 107 C157.66 108.65 158.32 110.3 159 112 C159.66 112 160.32 112 161 112 C169.87072571 126.39675157 173.37281163 143.2538723 170 160 C166.839884 171.9017356 161.20993666 181.73467223 152 190 C151.54882812 190.45503906 151.09765625 190.91007813 150.6328125 191.37890625 C139.2127308 202.25923285 124.92507993 205.32835106 109.6730957 205.24291992 C108.58691956 205.24481827 107.50074341 205.24671661 106.38165283 205.24867249 C102.81295396 205.25235709 99.24446188 205.24169902 95.67578125 205.23046875 C93.16684493 205.22927429 90.65790815 205.22882435 88.14897156 205.2290802 C82.89120138 205.22751868 77.63348315 205.21950994 72.37573242 205.20581055 C65.70157144 205.18848088 59.02750095 205.18499336 52.3533144 205.18575573 C47.16677655 205.18548088 41.98025463 205.17994804 36.79372215 205.17275429 C34.33703926 205.1696133 31.8803546 205.16761116 29.42366982 205.16686058 C22.68941666 205.16255461 15.95664515 205.12964551 9.22293472 205.04156113 C7.0364561 205.01336555 4.84989256 204.99122854 2.66329575 204.97455215 C-0.53912384 204.94317931 -3.73903035 204.87766835 -6.94067383 204.80200195 C-8.37997143 204.79439362 -8.37997143 204.79439362 -9.84834576 204.78663158 C-16.37748635 204.57838001 -16.37748635 204.57838001 -19.55131531 201.62956238 C-21.11082 198.79884643 -22.26164707 196.05702669 -23.3125 193 C-26.17556676 185.20855827 -29.65480918 177.39151763 -34.7109375 170.75390625 C-36 169 -36 169 -36 167 C-36.66 167 -37.32 167 -38 167 C-39.41015625 165.19921875 -39.41015625 165.19921875 -41.0625 162.6875 C-44.42014259 157.74235275 -48.06642031 153.13682673 -51.88671875 148.54296875 C-52.93279297 147.28419922 -52.93279297 147.28419922 -54 146 C-54.74894531 145.10925781 -55.49789062 144.21851563 -56.26953125 143.30078125 C-58 141 -58 141 -58 139 C-58.66 139 -59.32 139 -60 139 C-61.59903023 137.20416605 -63.0548061 135.41522733 -64.5 133.5 C-64.94069824 132.91903564 -65.38139648 132.33807129 -65.83544922 131.73950195 C-76.54848285 117.36988975 -85.58585899 101.74706183 -91.375 84.75 C-91.61379883 84.05406738 -91.85259766 83.35813477 -92.09863281 82.64111328 C-95.37849601 72.46214565 -96.37023227 62.21410344 -96.3125 51.5625 C-96.30686035 50.46719971 -96.3012207 49.37189941 -96.29541016 48.2434082 C-96.07110558 33.31382871 -92.32981369 19.99547475 -83 8 C-82.34 8 -81.68 8 -81 8 C-80.7525 7.38125 -80.505 6.7625 -80.25 6.125 C-78.79371361 3.64931313 -77.62187494 3.04874998 -75 2 C-75 1.34 -75 0.68 -75 0 C-52.47124151 -17.69182969 -22.6150401 -16.56036221 0 0 Z " fill="#2AC5EF" transform="translate(265,46)"/>
<path d="M0 0 C0.61053223 0.37092773 1.22106445 0.74185547 1.85009766 1.12402344 C3.27257573 2.02352551 4.64314603 3.0042615 6 4 C6 4.66 6 5.32 6 6 C6.763125 6.28875 7.52625 6.5775 8.3125 6.875 C11 8 11 8 14 10 C14 10.66 14 11.32 14 12 C14.5775 12.26296875 15.155 12.5259375 15.75 12.796875 C18.12497094 14.06682474 19.96708235 15.48707922 22 17.25 C22.66 17.81203125 23.32 18.3740625 24 18.953125 C26.4043271 21.41380352 28.16417746 24.09874474 30 27 C28.04808712 29.17277152 26.08902463 31.33822461 24.125 33.5 C23.56941406 34.12003906 23.01382813 34.74007812 22.44140625 35.37890625 C21.90644531 35.96542969 21.37148437 36.55195313 20.8203125 37.15625 C20.32805176 37.70087891 19.83579102 38.24550781 19.32861328 38.80664062 C18 40 18 40 16 40 C16 40.66 16 41.32 16 42 C15.34 42 14.68 42 14 42 C14 42.66 14 43.32 14 44 C12.42578125 45.55078125 12.42578125 45.55078125 10.3125 47.3125 C7.80197706 49.43644684 5.39176579 51.55501344 3.125 53.9375 C1 56 1 56 -1 56 C-1 56.66 -1 57.32 -1 58 C-1.66 58 -2.32 58 -3 58 C-3 58.66 -3 59.32 -3 60 C-3.66 60 -4.32 60 -5 60 C-5 60.66 -5 61.32 -5 62 C-5.66 62 -6.32 62 -7 62 C-7 62.66 -7 63.32 -7 64 C-7.66 64 -8.32 64 -9 64 C-9 64.66 -9 65.32 -9 66 C-9.66 66 -10.32 66 -11 66 C-11 66.66 -11 67.32 -11 68 C-11.66 68 -12.32 68 -13 68 C-13 68.66 -13 69.32 -13 70 C-13.66 70 -14.32 70 -15 70 C-15 70.66 -15 71.32 -15 72 C-15.66 72 -16.32 72 -17 72 C-17 72.66 -17 73.32 -17 74 C-17.66 74 -18.32 74 -19 74 C-19 74.66 -19 75.32 -19 76 C-19.66 76 -20.32 76 -21 76 C-21 76.66 -21 77.32 -21 78 C-21.66 78 -22.32 78 -23 78 C-23 78.66 -23 79.32 -23 80 C-23.66 80 -24.32 80 -25 80 C-25 80.66 -25 81.32 -25 82 C-30.47619048 87 -30.47619048 87 -33 87 C-33 87.66 -33 88.32 -33 89 C-33.66 89 -34.32 89 -35 89 C-35 89.66 -35 90.32 -35 91 C-37.1279181 92.78855185 -39.25148217 94.43661452 -41.5 96.0625 C-42.51018188 96.79351929 -42.51018188 96.79351929 -43.54077148 97.53930664 C-63.09418313 111.42722522 -81.86439142 118.16857541 -106.18994141 114.68652344 C-118.27460157 112.24776105 -128.66560093 104.83951416 -137 96 C-137.33 95.01 -137.66 94.02 -138 93 C-138.66 93 -139.32 93 -140 93 C-147.00671225 81.44974276 -151.3516315 71.71704611 -152 58 C-152.04125 57.26136719 -152.0825 56.52273438 -152.125 55.76171875 C-152.60249451 39.4373752 -147.33314778 24.29963817 -140 10 C-139.34 10 -138.68 10 -138 10 C-137.7834375 9.071875 -137.7834375 9.071875 -137.5625 8.125 C-137 6 -137 6 -136 4 C-135.34 4 -134.68 4 -134 4 C-133.74992187 3.42894531 -133.49984375 2.85789063 -133.2421875 2.26953125 C-127.26006323 -8.66007316 -114.37959982 -15.394259 -102.9765625 -19.22265625 C-68.54984307 -28.21336119 -29.65288363 -18.06937038 0 0 Z " fill="#E11D57" transform="translate(218,223)"/>
<path d="M0 0 C2.13228774 0.01073217 4.26373344 0.00002877 6.39599609 -0.01269531 C23.58517855 -0.03205292 39.55507173 2.63904061 53.63427734 13.26074219 C53.63427734 13.92074219 53.63427734 14.58074219 53.63427734 15.26074219 C54.29427734 15.26074219 54.95427734 15.26074219 55.63427734 15.26074219 C55.63427734 15.92074219 55.63427734 16.58074219 55.63427734 17.26074219 C56.29427734 17.26074219 56.95427734 17.26074219 57.63427734 17.26074219 C57.63427734 17.92074219 57.63427734 18.58074219 57.63427734 19.26074219 C58.29427734 19.26074219 58.95427734 19.26074219 59.63427734 19.26074219 C59.63427734 19.92074219 59.63427734 20.58074219 59.63427734 21.26074219 C60.29427734 21.26074219 60.95427734 21.26074219 61.63427734 21.26074219 C62.62427734 23.73574219 62.62427734 23.73574219 63.63427734 26.26074219 C64.29427734 26.26074219 64.95427734 26.26074219 65.63427734 26.26074219 C74.50500306 40.65749376 78.00708898 57.51461449 74.63427734 74.26074219 C71.47416134 86.16247778 65.844214 95.99541442 56.63427734 104.26074219 C56.18310547 104.71578125 55.73193359 105.17082031 55.26708984 105.63964844 C43.84700814 116.51997504 29.55935728 119.58909325 14.30737305 119.50366211 C13.2211969 119.50556046 12.13502075 119.5074588 11.01593018 119.50941467 C7.44723131 119.51309928 3.87873922 119.50244121 0.31005859 119.49121094 C-2.19887773 119.49001648 -4.7078145 119.48956654 -7.2167511 119.48982239 C-12.47452128 119.48826087 -17.7322395 119.48025213 -22.98999023 119.46655273 C-29.66415122 119.44922306 -36.3382217 119.44573555 -43.01240826 119.44649792 C-48.19894611 119.44622307 -53.38546803 119.44069022 -58.5720005 119.43349648 C-61.02868339 119.43035548 -63.48536806 119.42835334 -65.94205284 119.42760277 C-81.44255468 119.41769154 -96.8860074 119.08100527 -112.36572266 118.26074219 C-111.87072266 117.27074219 -111.87072266 117.27074219 -111.36572266 116.26074219 C-110.70572266 116.26074219 -110.04572266 116.26074219 -109.36572266 116.26074219 C-109.03572266 115.27074219 -108.70572266 114.28074219 -108.36572266 113.26074219 C-106.76416016 111.71777344 -106.76416016 111.71777344 -104.74072266 110.07324219 C-93.10025089 100.0426229 -85.32018795 86.77351438 -80.36572266 72.26074219 C-79.99189453 71.21917969 -79.61806641 70.17761719 -79.23291016 69.10449219 C-74.93169597 54.6090617 -75.52403439 39.26214361 -75.36572266 24.26074219 C-73.49072266 23.19824219 -73.49072266 23.19824219 -71.36572266 22.26074219 C-70.70572266 22.59074219 -70.04572266 22.92074219 -69.36572266 23.26074219 C-69.36572266 22.53886719 -69.36572266 21.81699219 -69.36572266 21.07324219 C-67.77517777 16.59983468 -64.44567007 15.38256669 -60.36572266 13.26074219 C-59.46853516 12.77476562 -58.57134766 12.28878906 -57.64697266 11.78808594 C-40.01512918 2.90399985 -19.55338021 -0.11668301 0 0 Z " fill="#33B979" transform="translate(360.36572265625,131.7392578125)"/>
<path d="M0 0 C8.05081094 9.89099629 8.40992998 22.81389954 8 35 C7.95746094 36.29550781 7.95746094 36.29550781 7.9140625 37.6171875 C6.91842714 53.97405409 -0.55172088 70.46206506 -11 83 C-11 79.38970831 -10.03907418 76.44193324 -9 73 C-8.01 73 -7.02 73 -6 73 C-5.67 70.69 -5.34 68.38 -5 66 C-4.34 66 -3.68 66 -3 66 C-3 65.01 -3 64.02 -3 63 C-2.34 63 -1.68 63 -1 63 C-0.67 60.03 -0.34 57.06 0 54 C0.99 54 1.98 54 3 54 C2.95875 53.113125 2.9175 52.22625 2.875 51.3125 C2.86032342 47.68738544 3.40046809 44.25935913 4 40.6875 C5.9028628 28.64059884 5.62778432 15.10875688 0 4 C0 2.68 0 1.36 0 0 Z " fill="#EDCF78" transform="translate(348,328)"/>
<path d="M0 0 C0.33 0 0.66 0 1 0 C1 4.29 1 8.58 1 13 C0.01 13.33 -0.98 13.66 -2 14 C-1.83701416 15.25482178 -1.67402832 16.50964355 -1.50610352 17.80249023 C-0.90199188 23.26453582 -0.87347689 28.67001788 -0.90234375 34.16015625 C-0.9037587 35.19063583 -0.90517365 36.22111542 -0.90663147 37.28282166 C-0.91218553 40.54274519 -0.9247293 43.80259757 -0.9375 47.0625 C-0.94252094 49.28580629 -0.94708281 51.50911367 -0.95117188 53.73242188 C-0.96213987 59.1549718 -0.9788316 64.57748081 -1 70 C-6.13068407 62.3039739 -4.19965967 49.76012913 -4.1875 40.8125 C-4.18756042 40.12879333 -4.18762085 39.44508667 -4.18768311 38.74066162 C-4.17098407 25.4750228 -3.22689039 12.90756155 0 0 Z " fill="#EDC65E" transform="translate(228,298)"/>
<path d="M0 0 C0.66 0.33 1.32 0.66 2 1 C-0.52055473 3.66882266 -2.77146697 5.86385267 -5.9375 7.75 C-12.99017743 12.93155893 -16.14749303 20.96264213 -19 29 C-19.66 29 -20.32 29 -21 29 C-21.10957031 29.75925781 -21.21914062 30.51851562 -21.33203125 31.30078125 C-21.49058594 32.29464844 -21.64914063 33.28851563 -21.8125 34.3125 C-21.96332031 35.29863281 -22.11414063 36.28476563 -22.26953125 37.30078125 C-23.03436705 40.12699269 -23.75258762 41.1959128 -26 43 C-25.43604091 31.90880462 -21.43396186 20.4367837 -14 12 C-13.34 12 -12.68 12 -12 12 C-11.62875 11.071875 -11.62875 11.071875 -11.25 10.125 C-9.79371361 7.64931313 -8.62187494 7.04874998 -6 6 C-6 5.34 -6 4.68 -6 4 C-4.03852126 2.61061923 -2.03833424 1.2739589 0 0 Z " fill="#7FD7EC" transform="translate(196,42)"/>
<path d="M0 0 C0.33 0 0.66 0 1 0 C2.7397402 54.27434188 2.7397402 54.27434188 1 69 C3.97 68.01 3.97 68.01 7 67 C6.67 68.32 6.34 69.64 6 71 C3.03 71.495 3.03 71.495 0 72 C0 48.24 0 24.48 0 0 Z " fill="#B2EFFC" transform="translate(285,84)"/>
<path d="M0 0 C4.30518843 2.00391654 7.54679386 4.79848049 11.125 7.875 C11.75792969 8.40480469 12.39085937 8.93460937 13.04296875 9.48046875 C13.65011719 9.99996094 14.25726563 10.51945312 14.8828125 11.0546875 C15.43340332 11.52374512 15.98399414 11.99280273 16.55126953 12.47607422 C18.17269326 14.18165678 19.0504068 15.85837652 20 18 C18.9275 17.525625 17.855 17.05125 16.75 16.5625 C14.18384827 15.46050339 11.73729628 14.58656349 9 14 C8.01 13.67 7.02 13.34 6 13 C5 10 5 10 5.9375 7.8125 C6.288125 7.214375 6.63875 6.61625 7 6 C6.21625 5.938125 5.4325 5.87625 4.625 5.8125 C3.75875 5.544375 2.8925 5.27625 2 5 C0.6875 2.4375 0.6875 2.4375 0 0 Z " fill="#F4C557" transform="translate(319,297)"/>
<path d="M0 0 C1.99923915 0.33786676 3.99905108 0.67241102 6 1 C6 1.33 6 1.66 6 2 C-6.34853548 2.2170641 -18.66798292 1.56691997 -31 1 C-31 0.34 -31 -0.32 -31 -1 C-20.4689674 -2.9147332 -10.4448848 -2.00413056 0 0 Z " fill="#DB6688" transform="translate(157,203)"/>
<path d="M0 0 C0.66 0.66 1.32 1.32 2 2 C1.60467975 4.45098556 0.78698574 6.63904279 0 9 C-0.09206175 10.41306102 -0.1306709 11.83003859 -0.1328125 13.24609375 C-0.13474609 14.07850586 -0.13667969 14.91091797 -0.13867188 15.76855469 C-0.1319043 17.08968262 -0.1319043 17.08968262 -0.125 18.4375 C-0.12306641 19.33243164 -0.12113281 20.22736328 -0.11914062 21.14941406 C-0.07592575 27.80210432 0.24722458 34.38633026 1 41 C0.34 41 -0.32 41 -1 41 C-5.35338257 27.9398523 -2.69161346 13.09433577 0 0 Z " fill="#DA8DA4" transform="translate(69,254)"/>
<path d="M0 0 C0 0.33 0 0.66 0 1 C-9.9 1 -19.8 1 -30 1 C-19.41349105 -4.29325448 -11.00443927 -3.9335017 0 0 Z " fill="#6AD0E8" transform="translate(243,36)"/>
<path d="M0 0 C4.06477066 1.60897172 5.45596424 3.67074468 8 7.1875 C7.01 7.5175 6.02 7.8475 5 8.1875 C5 7.5275 5 6.8675 5 6.1875 C3.02 6.1875 1.04 6.1875 -1 6.1875 C-1 5.5275 -1 4.8675 -1 4.1875 C-0.34 4.1875 0.32 4.1875 1 4.1875 C0.67 3.5275 0.34 2.8675 0 2.1875 C-3.16115776 3.55733503 -3.9927092 4.1765638 -6 7.1875 C-6.39013716 9.1771995 -6.73202649 11.17769869 -7 13.1875 C-7.66 13.1875 -8.32 13.1875 -9 13.1875 C-9.66 14.8375 -10.32 16.4875 -11 18.1875 C-12 15.1875 -12 15.1875 -10.625 12.25 C-10.08875 11.239375 -9.5525 10.22875 -9 9.1875 C-8.87625 8.506875 -8.7525 7.82625 -8.625 7.125 C-7.23351827 2.81140665 -4.4868566 0.28042854 0 0 Z " fill="#FCDCAC" transform="translate(250,249.8125)"/>
<path d="M0 0 C0 3 0 3 -1 5 C-1.66 5 -2.32 5 -3 5 C-3.23203125 5.556875 -3.4640625 6.11375 -3.703125 6.6875 C-7.46359809 13.3929219 -14.38284872 19.16901768 -21 23 C-20.75 21.125 -20.75 21.125 -20 19 C-19.0409375 18.5359375 -19.0409375 18.5359375 -18.0625 18.0625 C-15.73302326 17.15027284 -15.73302326 17.15027284 -15 14.4375 C-14.67 13.633125 -14.34 12.82875 -14 12 C-12.67511887 11.63451555 -11.33981486 11.3062434 -10 11 C-6.38185819 7.8987356 -4.70133625 5.37486463 -3 1 C-2.01 0.67 -1.02 0.34 0 0 Z " fill="#F4E09A" transform="translate(335,411)"/>
<path d="M0 0 C2.37002713 3.5550407 2.48200988 6.37199569 2.6875 10.5 C2.74611206 11.56661865 2.74611206 11.56661865 2.8059082 12.65478516 C3.07328927 18.4252719 3.24915982 24.32990066 2 30 C1.34 30.66 0.68 31.32 0 32 C0 21.44 0 10.88 0 0 Z " fill="#7CCAA7" transform="translate(433,176)"/>
<path d="M0 0 C0.99 0 1.98 0 3 0 C3 0.66 3 1.32 3 2 C4.65 2 6.3 2 8 2 C6.125 6.75 6.125 6.75 5 9 C5.66 9 6.32 9 7 9 C7 11.31 7 13.62 7 16 C4.27821353 13.62916021 3.11230393 11.3466216 1.8125 8 C1.46832031 7.13375 1.12414062 6.2675 0.76953125 5.375 C0 3 0 3 0 0 Z " fill="#68D0EC" transform="translate(240,232)"/>
<path d="M0 0 C0.66 0 1.32 0 2 0 C1.75 1.875 1.75 1.875 1 4 C-0.33333333 4.66666667 -1.66666667 5.33333333 -3 6 C-3.80528889 8.05000871 -3.80528889 8.05000871 -4 10 C-5.32 10.33 -6.64 10.66 -8 11 C-8.33 12.32 -8.66 13.64 -9 15 C-10.65 15 -12.3 15 -14 15 C-13.34 14.67 -12.68 14.34 -12 14 C-11.67 13.01 -11.34 12.02 -11 11 C-9.2578125 9.31640625 -9.2578125 9.31640625 -7.125 7.5625 C-4.89360158 5.72221385 -3.0837276 4.1139737 -1.3671875 1.77734375 C-0.69042969 0.89755859 -0.69042969 0.89755859 0 0 Z " fill="#29BB91" transform="translate(263,234)"/>
<path d="M0 0 C5.78461538 3.32307692 5.78461538 3.32307692 6.875 6.75 C6.936875 7.86375 6.936875 7.86375 7 9 C7.66 9 8.32 9 9 9 C9 9.99 9 10.98 9 12 C9.66 12 10.32 12 11 12 C11 12.66 11 13.32 11 14 C11.66 14 12.32 14 13 14 C13.33 15.98 13.66 17.96 14 20 C10.18724995 16.39041603 7.1377712 12.64709147 4.1875 8.3125 C3.78080078 7.73177734 3.37410156 7.15105469 2.95507812 6.55273438 C0 2.25669643 0 2.25669643 0 0 Z " fill="#F5DE9D" transform="translate(250,425)"/>
<path d="M0 0 C0.33 0 0.66 0 1 0 C1 7.92 1 15.84 1 24 C1.66 24 2.32 24 3 24 C4.28571429 32.42857143 4.28571429 32.42857143 3 37 C2.67 37 2.34 37 2 37 C0.29520934 28.50103234 -0.25785291 20.405878 -0.125 11.75 C-0.11597656 10.61175781 -0.10695312 9.47351563 -0.09765625 8.30078125 C-0.0744028 5.53362119 -0.04172868 2.7669324 0 0 Z " fill="#ADEBF6" transform="translate(169,85)"/>
<path d="M0 0 C1.98 0.66 3.96 1.32 6 2 C6 2.66 6 3.32 6 4 C6.556875 4.103125 7.11375 4.20625 7.6875 4.3125 C10.44176578 5.13133577 12.58727657 6.45853781 15 8 C13 9 13 9 11.0546875 8.44140625 C9.97574219 8.00634766 9.97574219 8.00634766 8.875 7.5625 C8.15054687 7.27503906 7.42609375 6.98757813 6.6796875 6.69140625 C6.12539063 6.46324219 5.57109375 6.23507812 5 6 C4.67 6.66 4.34 7.32 4 8 C4 7.34 4 6.68 4 6 C2.68 5.67 1.36 5.34 0 5 C0 3.35 0 1.7 0 0 Z " fill="#EDC755" transform="translate(281,272)"/>
<path d="M0 0 C5.61345541 1.95818212 7.45847256 4.82730672 10.1171875 9.84375 C11 12 11 12 11 15 C9 13.625 9 13.625 7 12 C7 11.34 7 10.68 7 10 C6.34 10 5.68 10 5 10 C3.7109375 8.3203125 3.7109375 8.3203125 2.375 6.125 C1.92898437 5.40570313 1.48296875 4.68640625 1.0234375 3.9453125 C0 2 0 2 0 0 Z " fill="#DA6188" transform="translate(73,306)"/>
<path d="M0 0 C3 1 3 1 4.16796875 2.671875 C7.55343511 9.57251908 7.55343511 9.57251908 7 14 C7.66 14 8.32 14 9 14 C8.67 15.32 8.34 16.64 8 18 C6.6589995 15.5664433 5.32705144 13.12864699 4 10.6875 C3.6184375 9.99720703 3.236875 9.30691406 2.84375 8.59570312 C0 3.33984375 0 3.33984375 0 0 Z " fill="#F2D889" transform="translate(235,396)"/>
<path d="M0 0 C5.2857548 -0.33348611 9.43803625 0.84839368 14.375 2.5 C15.11105469 2.73847656 15.84710938 2.97695312 16.60546875 3.22265625 C18.40619578 3.80730788 20.2034691 4.4025788 22 5 C22 5.33 22 5.66 22 6 C16.25883676 6.23433319 11.4132466 6.02996747 6 4 C5.67 3.34 5.34 2.68 5 2 C2.47266765 1.34444881 2.47266765 1.34444881 0 1 C0 0.67 0 0.34 0 0 Z " fill="#E17B9A" transform="translate(170,205)"/>
<path d="M0 0 C0.33 0 0.66 0 1 0 C1.94120241 8.16674095 1.94120241 15.83325905 1 24 C2.98 23.34 4.96 22.68 7 22 C6.67 23.32 6.34 24.64 6 26 C4.02 26.33 2.04 26.66 0 27 C0 18.09 0 9.18 0 0 Z " fill="#8CDEE5" transform="translate(285,129)"/>
<path d="M0 0 C3.81086201 1.36345689 6.79784676 3.11836734 10.0625 5.5 C12.96461902 7.61063201 15.73856835 9.49356506 19 11 C19 11.66 19 12.32 19 13 C18.01 13 17.02 13 16 13 C16 12.34 16 11.68 16 11 C13.03 10.505 13.03 10.505 10 10 C9.67 9.01 9.34 8.02 9 7 C8.01 7 7.02 7 6 7 C6 6.34 6 5.68 6 5 C5.34 5 4.68 5 4 5 C4 4.34 4 3.68 4 3 C2.68 2.34 1.36 1.68 0 1 C0 0.67 0 0.34 0 0 Z " fill="#F0D581" transform="translate(258,257)"/>
<path d="M0 0 C1.485 0.99 1.485 0.99 3 2 C3.38932033 3.98985949 3.71887936 5.99199544 4 8 C5.17134154 10.72570321 5.17134154 10.72570321 7 13 C7.04092937 15.33297433 7.04241723 17.66705225 7 20 C4.36562124 16.85988091 3.07995273 13.88491259 1.8125 10 C1.46832031 8.96875 1.12414062 7.9375 0.76953125 6.875 C0 4 0 4 0 0 Z " fill="#86DCEE" transform="translate(172,122)"/>
<path d="M0 0 C1.91789713 0.28346278 3.83429183 0.5771028 5.75 0.875 C7.35101563 1.11863281 7.35101563 1.11863281 8.984375 1.3671875 C11.67708871 1.93223882 13.63572439 2.63422914 16 4 C16 4.66 16 5.32 16 6 C9.75276774 6.82200425 5.28682163 3.92551394 0 1 C0 0.67 0 0.34 0 0 Z " fill="#DC6D8F" transform="translate(96,330)"/>
<path d="M0 0 C1.98 0.99 1.98 0.99 4 2 C4 2.99 4 3.98 4 5 C4.66 5 5.32 5 6 5 C6 5.66 6 6.32 6 7 C6.99 7.33 7.98 7.66 9 8 C10.1875 11.0625 10.1875 11.0625 11 14 C10.01 14 9.02 14 8 14 C5.95703125 11.4453125 5.95703125 11.4453125 3.8125 8.125 C3.09707031 7.03445312 2.38164062 5.94390625 1.64453125 4.8203125 C0 2 0 2 0 0 Z " fill="#82D7EC" transform="translate(190,162)"/>
<path d="M0 0 C0.99 0.33 1.98 0.66 3 1 C3.33 2.98 3.66 4.96 4 7 C4.66 7 5.32 7 6 7 C6.103125 7.598125 6.20625 8.19625 6.3125 8.8125 C7.08876455 11.28243264 8.07088921 12.32251235 10 14 C9.01 14 8.02 14 7 14 C3 9.65714286 3 9.65714286 3 7 C2.34 7 1.68 7 1 7 C-0.0625 4.625 -0.0625 4.625 -1 2 C-0.67 1.34 -0.34 0.68 0 0 Z " fill="#F0CE71" transform="translate(265,443)"/>
<path d="M0 0 C2.71159055 4.06738583 2.40999452 7.22987142 2 12 C1.48718197 14.42704396 0.80166344 16.64511366 0 19 C-0.66 19 -1.32 19 -2 19 C-1.7834375 17.081875 -1.7834375 17.081875 -1.5625 15.125 C-1.00185355 10.08719116 -0.49498469 5.04463121 0 0 Z " fill="#EECA6E" transform="translate(353,362)"/>
<path d="M0 0 C0.33 0 0.66 0 1 0 C0.67 4.62 0.34 9.24 0 14 C-0.33 14 -0.66 14 -1 14 C-1.268125 14.94875 -1.53625 15.8975 -1.8125 16.875 C-3 20 -3 20 -6 22 C-5.81824219 21.41734375 -5.63648438 20.8346875 -5.44921875 20.234375 C-3.39764489 13.54308794 -1.64771106 6.80119035 0 0 Z " fill="#27B992" transform="translate(283,192)"/>
<path d="M0 0 C0.33 0 0.66 0 1 0 C1 4.29 1 8.58 1 13 C0.01 13.33 -0.98 13.66 -2 14 C-2 15.65 -2 17.3 -2 19 C-2.33 19 -2.66 19 -3 19 C-2.48446121 12.50149789 -1.53332291 6.33773468 0 0 Z " fill="#F0D684" transform="translate(228,298)"/>
<path d="M0 0 C1.485 0.99 1.485 0.99 3 2 C3 2.66 3 3.32 3 4 C3.66 4 4.32 4 5 4 C9 10.75 9 10.75 9 13 C8.34 13 7.68 13 7 13 C3.48352195 9.24100622 0.33048559 5.28776943 0 0 Z " fill="#F1D487" transform="translate(339,315)"/>
<path d="M0 0 C0 3.6987636 -0.84352062 4.35773852 -3.25 7.0625 C-4.15492188 8.10083984 -4.15492188 8.10083984 -5.078125 9.16015625 C-6.97018869 10.97146113 -8.60605599 11.9778071 -11 13 C-11 12.34 -11 11.68 -11 11 C-10.34 11 -9.68 11 -9 11 C-8.9071875 9.824375 -8.9071875 9.824375 -8.8125 8.625 C-8.544375 7.75875 -8.27625 6.8925 -8 6 C-5.625 4.9375 -5.625 4.9375 -3 4 C-1.19651922 1.98682781 -1.19651922 1.98682781 0 0 Z " fill="#2CC5D6" transform="translate(267,228)"/>
<path d="M0 0 C-1.40552299 1.03612271 -2.82491694 2.05344925 -4.25 3.0625 C-5.43335938 3.91521484 -5.43335938 3.91521484 -6.640625 4.78515625 C-9 6 -9 6 -11.296875 5.68359375 C-11.85890625 5.45800781 -12.4209375 5.23242188 -13 5 C-12.67 4.34 -12.34 3.68 -12 3 C-10.68 3 -9.36 3 -8 3 C-8 2.01 -8 1.02 -8 0 C-2.25 -1.125 -2.25 -1.125 0 0 Z " fill="#F1D68C" transform="translate(287,455)"/>
<path d="M0 0 C3.23861303 1.44424635 5.61969163 3.25772247 8.25 5.625 C8.95640625 6.25664062 9.6628125 6.88828125 10.390625 7.5390625 C10.92171875 8.02117187 11.4528125 8.50328125 12 9 C11.34 9.66 10.68 10.32 10 11 C8.5 9.625 8.5 9.625 7 8 C7 7.34 7 6.68 7 6 C6.21625 5.938125 5.4325 5.87625 4.625 5.8125 C3.75875 5.544375 2.8925 5.27625 2 5 C0.6875 2.4375 0.6875 2.4375 0 0 Z " fill="#EED57F" transform="translate(319,297)"/>
<path d="M0 0 C1.125 1.6875 1.125 1.6875 2 4 C0.9163987 8.5752055 -1.95755903 11.55723785 -5 15 C-5 11.38970831 -4.03907418 8.44193324 -3 5 C-2.01 5 -1.02 5 0 5 C0 3.35 0 1.7 0 0 Z " fill="#F1D37E" transform="translate(342,396)"/>
<path d="M0 0 C1.98 0.99 1.98 0.99 4 2 C4 3.32 4 4.64 4 6 C5.32 6.66 6.64 7.32 8 8 C7.67 9.65 7.34 11.3 7 13 C0 4.25 0 4.25 0 0 Z " fill="#80DAEC" transform="translate(233,219)"/>
<path d="M0 0 C1.29556054 3.88668161 1.09950945 7.06145867 0 11 C-2.0625 13 -2.0625 13 -4 14 C-3.00956295 9.16371695 -2.04301154 4.52381127 0 0 Z " fill="#F3D787" transform="translate(237,268)"/>
<path d="M0 0 C2.475 0.99 2.475 0.99 5 2 C5 2.66 5 3.32 5 4 C5.763125 4.28875 6.52625 4.5775 7.3125 4.875 C10 6 10 6 13 8 C13 8.66 13 9.32 13 10 C11.0625 9.625 11.0625 9.625 9 9 C8.67 8.34 8.34 7.68 8 7 C6.5459375 6.319375 6.5459375 6.319375 5.0625 5.625 C1.92812978 3.96186478 1.1240583 3.25976906 0 0 Z " fill="#E481A0" transform="translate(219,225)"/>
<path d="M0 0 C1.32 0.33 2.64 0.66 4 1 C4 2.32 4 3.64 4 5 C5.32 5.33 6.64 5.66 8 6 C8 7.65 8 9.3 8 11 C7.34 10.67 6.68 10.34 6 10 C6 9.34 6 8.68 6 8 C5.34 8 4.68 8 4 8 C0 2.58823529 0 2.58823529 0 0 Z " fill="#7BD9ED" transform="translate(223,205)"/>
<path d="M0 0 C2.90065771 1.45032886 3.35265712 3.4605293 4.6875 6.375 C5.14511719 7.35210937 5.60273438 8.32921875 6.07421875 9.3359375 C7 12 7 12 6 15 C6 14.34 6 13.68 6 13 C5.01 12.67 4.02 12.34 3 12 C3 10.35 3 8.7 3 7 C2.34 7 1.68 7 1 7 C0.67 4.69 0.34 2.38 0 0 Z " fill="#99D8BB" transform="translate(426,160)"/>
<path d="M0 0 C0.66 0 1.32 0 2 0 C2 0.66 2 1.32 2 2 C1.34 2 0.68 2 0 2 C0 1.34 0 0.68 0 0 Z M-1 2 C-0.67 2.66 -0.34 3.32 0 4 C1.32 4.33 2.64 4.66 4 5 C1.69 6.65 -0.62 8.3 -3 10 C-3.66 9.67 -4.32 9.34 -5 9 C-3.68 6.69 -2.36 4.38 -1 2 Z " fill="#F2D177" transform="translate(292,444)"/>
<path d="M0 0 C0.33 1.32 0.66 2.64 1 4 C0.34 4 -0.32 4 -1 4 C-1 4.66 -1 5.32 -1 6 C-1.66 6 -2.32 6 -3 6 C-3.33 6.99 -3.66 7.98 -4 9 C-6.0625 10.1875 -6.0625 10.1875 -8 11 C-7.34 9.35 -6.68 7.7 -6 6 C-5.34 6 -4.68 6 -4 6 C-3.71125 5.38125 -3.4225 4.7625 -3.125 4.125 C-2 2 -2 2 0 0 Z " fill="#DE7D9E" transform="translate(88,221)"/>
<path d="M0 0 C0.66 0.33 1.32 0.66 2 1 C-1.38779144 4.58707329 -4.73545141 7.49689539 -9 10 C-9.99 10 -10.98 10 -12 10 C-10.71034824 8.62437146 -9.37310707 7.29233607 -8 6 C-7.34 6 -6.68 6 -6 6 C-6 5.34 -6 4.68 -6 4 C-4.03852126 2.61061923 -2.03833424 1.2739589 0 0 Z " fill="#AEEBF7" transform="translate(196,42)"/>
<path d="M0 0 C0.99 0.33 1.98 0.66 3 1 C1.5741914 4.45195767 -0.09746334 6.1014256 -3.125 8.25 C-3.84945313 8.77078125 -4.57390625 9.2915625 -5.3203125 9.828125 C-5.87460937 10.21484375 -6.42890625 10.6015625 -7 11 C-6.62109375 9.05859375 -6.62109375 9.05859375 -6 7 C-5.360625 6.690625 -4.72125 6.38125 -4.0625 6.0625 C-1.73547609 5.12720697 -1.73547609 5.12720697 -0.75 2.375 C-0.5025 1.59125 -0.255 0.8075 0 0 Z " fill="#EED27D" transform="translate(321,423)"/>
<path d="M0 0 C2 1.375 2 1.375 4 4 C4.35791096 7.3580469 4.23115823 10.63536357 4 14 C0.7354972 10.7354972 0.06763945 6.58952701 -0.125 2.0625 C-0.08375 1.381875 -0.0425 0.70125 0 0 Z " fill="#F0D27B" transform="translate(227,370)"/>
<path d="M0 0 C0.66 0 1.32 0 2 0 C2.33 3.96 2.66 7.92 3 12 C2.34 12 1.68 12 1 12 C0.03929566 9.11788698 -0.10581883 7.30149956 -0.0625 4.3125 C-0.05347656 3.50425781 -0.04445313 2.69601562 -0.03515625 1.86328125 C-0.02355469 1.24839844 -0.01195313 0.63351562 0 0 Z " fill="#D66689" transform="translate(67,283)"/>
<path d="M0 0 C1.32 1.32 2.64 2.64 4 4 C3.34 6.31 2.68 8.62 2 11 C1.67 11 1.34 11 1 11 C0.63743142 9.5437328 0.28520207 8.08488815 -0.0625 6.625 C-0.35833984 5.40683594 -0.35833984 5.40683594 -0.66015625 4.1640625 C-1 2 -1 2 0 0 Z " fill="#D51D53" transform="translate(75,241)"/>
<path d="M0 0 C0 4 0 4 -1.25 5.8125 C-3 7 -3 7 -5.1875 6.6875 C-5.785625 6.460625 -6.38375 6.23375 -7 6 C-5.52522876 2.59668175 -4.14385429 0 0 0 Z " fill="#D51D53" transform="translate(112,207)"/>
<path d="M0 0 C0.99 0.33 1.98 0.66 3 1 C2.34 1 1.68 1 1 1 C0.67 1.66 0.34 2.32 0 3 C-2.04603484 5.84171505 -3.11491393 6.02142463 -6.6875 6.6875 C-7.780625 6.790625 -8.87375 6.89375 -10 7 C-7.19527484 3.70032335 -3.83081791 1.91540896 0 0 Z " fill="#E27FA1" transform="translate(107,207)"/>
<path d="M0 0 C0.66 0 1.32 0 2 0 C2.69965443 1.26418246 3.38434763 2.53665402 4.0625 3.8125 C4.63677734 4.87404297 4.63677734 4.87404297 5.22265625 5.95703125 C6 8 6 8 5 11 C2.65808437 8.8709858 1.16445046 6.95591271 0 4 C0 2.68 0 1.36 0 0 Z " fill="#68CDEB" transform="translate(277,63)"/>
<path d="M0 0 C4.59306496 1.4859916 7.43569245 3.85014682 11 7 C10.01 7.495 10.01 7.495 9 8 C8.01 7.67 7.02 7.34 6 7 C6 6.34 6 5.68 6 5 C5.01 5.33 4.02 5.66 3 6 C2.01 4.02 1.02 2.04 0 0 Z " fill="#F3D98E" transform="translate(308,289)"/>
<path d="M0 0 C0.33 0 0.66 0 1 0 C1.0270043 1.45823212 1.04639787 2.91660675 1.0625 4.375 C1.07410156 5.18710937 1.08570313 5.99921875 1.09765625 6.8359375 C1 9 1 9 0 11 C-0.66 11 -1.32 11 -2 11 C-2.33 11.66 -2.66 12.32 -3 13 C-2.343621 8.51474352 -1.29925791 4.33085971 0 0 Z " fill="#F1D27B" transform="translate(232,283)"/>
<path d="M0 0 C0.66 0.66 1.32 1.32 2 2 C1.6875 3.875 1.6875 3.875 1 6 C0.87625 6.721875 0.7525 7.44375 0.625 8.1875 C0.41875 8.785625 0.2125 9.38375 0 10 C-0.99 10.33 -1.98 10.66 -3 11 C-2.44894091 7.0507432 -1.61064629 3.65079826 0 0 Z " fill="#E37D9F" transform="translate(73,243)"/>
<path d="M0 0 C0.99 0.33 1.98 0.66 3 1 C3 1.66 3 2.32 3 3 C2.34 3 1.68 3 1 3 C0.67 3.99 0.34 4.98 0 6 C-0.66 5.67 -1.32 5.34 -2 5 C-2.99 5.99 -3.98 6.98 -5 8 C-3.8141763 4.62496331 -2.72426311 2.35277269 0 0 Z " fill="#EDB333" transform="translate(248,251)"/>
<path d="M0 0 C0.66 0 1.32 0 2 0 C2 1.98 2 3.96 2 6 C1.195625 6.28875 0.39125 6.5775 -0.4375 6.875 C-3.1326468 7.73262568 -3.1326468 7.73262568 -4 10 C-3.29445932 6.33118845 -1.72264494 3.29549466 0 0 Z " fill="#E17899" transform="translate(78,233)"/>
<path d="M0 0 C2.9719385 1.12451727 5.33440687 2.22293791 8 4 C8 4.66 8 5.32 8 6 C8.66 6 9.32 6 10 6 C9.67 6.66 9.34 7.32 9 8 C4.12314139 6.64531705 2.51407619 4.28324091 0 0 Z " fill="#9BDABD" transform="translate(406,141)"/>
<path d="M0 0 C3.94139078 1.66751148 6.7892812 4.22710649 10 7 C8 7 6 7 4 7 C2.02 3.535 2.02 3.535 0 0 Z " fill="#E0819F" transform="translate(232,235)"/>
<path d="M0 0 C0 0.99 0 1.98 0 3 C-1.98 3 -3.96 3 -6 3 C-6 3.99 -6 4.98 -6 6 C-7.65 6 -9.3 6 -11 6 C-7.57865372 2.33427184 -5.14341528 0 0 0 Z " fill="#8CD5B6" transform="translate(303,145)"/>
<path d="M0 0 C0.99 0.33 1.98 0.66 3 1 C3.70491267 3.32206525 4.37212429 5.65593068 5 8 C5.66 8.33 6.32 8.66 7 9 C6.01 9 5.02 9 4 9 C0 2.25 0 2.25 0 0 Z " fill="#F0D181" transform="translate(244,414)"/>
<path d="M0 0 C3 1 3 1 4.25 2.875 C5 5 5 5 4 8 C1.10067643 5.60490662 0.49831724 3.68754757 0 0 Z " fill="#EFCD7A" transform="translate(235,396)"/>
<path d="M0 0 C0.99 0.33 1.98 0.66 3 1 C0.66656647 4.50015029 -1.16917814 5.40382422 -5 7 C-5.66 6.67 -6.32 6.34 -7 6 C-5.90716423 4.96704564 -4.80029421 3.94892165 -3.6875 2.9375 C-3.07261719 2.36902344 -2.45773438 1.80054688 -1.82421875 1.21484375 C-0.92123047 0.61349609 -0.92123047 0.61349609 0 0 Z " fill="#68CEE4" transform="translate(201,39)"/>
<path d="M0 0 C5.875 2.75 5.875 2.75 7 5 C6.01 5.33 5.02 5.66 4 6 C4 5.34 4 4.68 4 4 C2.02 4 0.04 4 -2 4 C-2 3.34 -2 2.68 -2 2 C-1.34 2 -0.68 2 0 2 C0 1.34 0 0.68 0 0 Z " fill="#EECB6A" transform="translate(251,252)"/>
<path d="M0 0 C2.475 0.99 2.475 0.99 5 2 C4.01 3.485 4.01 3.485 3 5 C1.68 4.34 0.36 3.68 -1 3 C-0.67 2.01 -0.34 1.02 0 0 Z " fill="#DE4472" transform="translate(171,316)"/>
<path d="M0 0 C1.98 0.99 3.96 1.98 6 3 C6 3.99 6 4.98 6 6 C3.5625 5.25 3.5625 5.25 1 4 C0.1875 1.875 0.1875 1.875 0 0 Z " fill="#DD547E" transform="translate(73,306)"/>
<path d="M0 0 C0.66 0 1.32 0 2 0 C2 1.32 2 2.64 2 4 C1.34 4 0.68 4 0 4 C-0.66 5.65 -1.32 7.3 -2 9 C-3 6 -3 6 -1.5625 2.8125 C-1.046875 1.884375 -0.53125 0.95625 0 0 Z " fill="#F0D381" transform="translate(241,259)"/>
<path d="M0 0 C0.99 0.99 1.98 1.98 3 3 C0.03 5.475 0.03 5.475 -3 8 C-3 6.35 -3 4.7 -3 3 C-2.01 2.67 -1.02 2.34 0 2 C0 1.34 0 0.68 0 0 Z " fill="#C43052" transform="translate(245,247)"/>
<path d="M0 0 C0.33 0.99 0.66 1.98 1 3 C-0.65 4.65 -2.3 6.3 -4 8 C-3.50168276 4.31245243 -2.89932357 2.39509338 0 0 Z " fill="#59CEE8" transform="translate(184,53)"/>
<path d="M0 0 C1.32 0.33 2.64 0.66 4 1 C4 1.99 4 2.98 4 4 C3.34 4 2.68 4 2 4 C2 4.66 2 5.32 2 6 C1.34 6 0.68 6 0 6 C0 4.02 0 2.04 0 0 Z " fill="#E05680" transform="translate(181,308)"/>
<path d="M0 0 C2.475 0.99 2.475 0.99 5 2 C4.67 2.99 4.34 3.98 4 5 C2.35 4.67 0.7 4.34 -1 4 C-0.67 2.68 -0.34 1.36 0 0 Z " fill="#EEB634" transform="translate(315,296)"/>
<path d="M0 0 C0.66 0 1.32 0 2 0 C2 0.66 2 1.32 2 2 C2.66 2 3.32 2 4 2 C4.33 3.98 4.66 5.96 5 8 C2.20127563 5.47211993 0.54226981 3.79588866 0 0 Z " fill="#EDC669" transform="translate(259,437)"/>
<path d="M0 0 C1.98 0 3.96 0 6 0 C6 0.66 6 1.32 6 2 C4.37373596 3.38232443 2.7074998 4.71937515 1 6 C0.34 5.67 -0.32 5.34 -1 5 C-0.67 3.35 -0.34 1.7 0 0 Z " fill="#F3D681" transform="translate(306,435)"/>
<path d="M0 0 C3.37503669 1.1858237 5.64722731 2.27573689 8 5 C5.36 4.34 2.72 3.68 0 3 C0 2.01 0 1.02 0 0 Z " fill="#F2DE9B" transform="translate(288,276)"/>
<path d="M0 0 C0.66 0 1.32 0 2 0 C2.33 1.32 2.66 2.64 3 4 C1.68 4.99 0.36 5.98 -1 7 C-1.33 5.68 -1.66 4.36 -2 3 C-1.34 3 -0.68 3 0 3 C0 2.01 0 1.02 0 0 Z " fill="#6FCAA1" transform="translate(421,225)"/>
<path d="M0 0 C0.66 0.33 1.32 0.66 2 1 C1.375 2.875 1.375 2.875 0 5 C-3.125 6.25 -3.125 6.25 -6 7 C-4.02 4.69 -2.04 2.38 0 0 Z " fill="#E491AC" transform="translate(95,214)"/>
</svg>
